# xmcd
#
# Track frame offsets:
#       150
#       18453
#       40108
#       54049
#       73698
#       91180
#       108257
#       122978
#       140600
#       161248
#       179470
#       195787
#       215189
#       231429
#       248054
#       266803
#
# Disc length: 3857 seconds
#
# Revision: 1
# Processed by: cddbd v1.5PL3 Copyright (c) Steve Scherf et al.
# Submitted via: MusiCat 1.1
#
DISCID=e50f0f10
DTITLE=Celtic Spirit - Celtic Dreams
DYEAR=1900
DGENRE=
TTITLE0=Riverdance
TTITLE1=Celtic Spirit Medley
TTITLE2=Ta Muid
TTITLE3=How can I Keep From Singing
TTITLE4=Fear Is The Enemy
TTITLE5=The last Crossing
TTITLE6=Martha's Harbour
TTITLE7=Earthjig
TTITLE8=Le Coeur (The Heart)
TTITLE9=Mystic Lipstick
TTITLE10=Ailein Duinn
TTITLE11=Will Ye Go lassie Go
TTITLE12=Daire's Dream
TTITLE13=Air Song
TTITLE14=Song For Ireland
TTITLE15=Lord of the Dance/Earthjig reprise
EXTD=\n\n
EXTT0=
EXTT1=
EXTT2=
EXTT3=
EXTT4=
EXTT5=
EXTT6=
EXTT7=
EXTT8=
EXTT9=
EXTT10=
EXTT11=
EXTT12=
EXTT13=
EXTT14=
EXTT15=
PLAYORDER=
